<svg width="80" height="80" viewBox="0 0 80 80" fill="none" xmlns="http://www.w3.org/2000/svg">
<g clip-path="url(#clip0_3959_324)">
<path d="M80 40C80 62.0914 62.0914 80 40 80C17.9086 80 0 62.0914 0 40C0 17.9086 17.9086 0 40 0C62.0914 0 80 17.9086 80 40Z" fill="white"/>
<path fill-rule="evenodd" clip-rule="evenodd" d="M40 78.3333C61.1709 78.3333 78.3333 61.1709 78.3333 40C78.3333 18.8291 61.1709 1.66667 40 1.66667C18.8291 1.66667 1.66667 18.8291 1.66667 40C1.66667 61.1709 18.8291 78.3333 40 78.3333ZM40 80C62.0914 80 80 62.0914 80 40C80 17.9086 62.0914 0 40 0C17.9086 0 0 17.9086 0 40C0 62.0914 17.9086 80 40 80Z" fill="black" fill-opacity="0.12"/>
<path d="M39.7681 12C42.4326 12 45.3079 13.023 46.6402 15.36C52.8013 26.1678 58.2516 35.28 64.6498 46.8C65.4291 48.2032 64.7446 49.2 64.1758 49.68C62.754 50.8799 57.5407 48.72 55.171 45.84C52.8014 42.9601 53.0383 41.938 53.0383 39.12C53.0383 31.68 45.728 26.7514 39.2941 27.12C32.1029 27.5321 26.549 33.5075 26.7348 40.8C26.9121 47.7593 32.0167 52.7681 38.8202 53.76C42.6651 54.3205 46.6401 51.6001 49.0098 51.6C52.2089 51.6 54.6971 54 57.5407 55.92C58.1615 56.3392 59.4364 57.12 59.1995 58.56C58.9678 59.9682 57.3037 60 57.3037 60H22.7063C19.8812 60 16.7302 58.5134 15.1234 56.16C13.5647 53.877 13.6875 49.1638 15.1238 46.8C22.7067 34.3201 27.9196 24.921 33.3699 15.36C34.6949 13.0357 37.1615 12 39.7681 12ZM39.7681 32.64C43.8252 32.64 47.1141 35.971 47.1141 40.08C47.1141 44.189 43.8252 47.52 39.7681 47.52C35.711 47.5199 32.4221 44.189 32.4221 40.08C32.4221 35.971 35.711 32.6401 39.7681 32.64Z" fill="#9549D1"/>
</g>
<defs>
<clipPath id="clip0_3959_324">
<rect width="80" height="80" fill="white"/>
</clipPath>
</defs>
</svg>
