<svg width="80" height="80" viewBox="0 0 80 80" fill="none" xmlns="http://www.w3.org/2000/svg">
<g clip-path="url(#clip0_3974_7108)">
<path d="M80 40C80 62.0914 62.0914 80 40 80C17.9086 80 0 62.0914 0 40C0 17.9086 17.9086 0 40 0C62.0914 0 80 17.9086 80 40Z" fill="#6FAF45"/>
<path fill-rule="evenodd" clip-rule="evenodd" d="M24.029 76.6842L23.3421 49.2045C23.1767 46.3762 25.3763 43.9911 28.1453 43.9911H51.6794C54.5506 43.9911 56.8281 46.4659 56.6577 49.3987L56.1955 76.5857C51.2444 78.7806 45.7647 80 40.0002 80C34.3225 80 28.9211 78.8171 24.029 76.6842ZM44.5209 63.5301L51.0954 68.1957L48.268 60.8263L53.9326 56.315L46.813 56.3399L44.3895 50.5639L42.1412 56.3399H34.788L40.6277 61.1649L37.6981 68.1459L44.5209 63.5301Z" fill="white"/>
<path d="M26.2912 27.395C26.2912 35.1628 32.4472 41.4567 40.034 41.4567C47.6256 41.4567 53.7768 35.1628 53.7768 27.395C53.7768 19.6272 47.6256 13.3333 40.034 13.3333C32.4424 13.3333 26.2912 19.6272 26.2912 27.395Z" fill="white"/>
<path fill-rule="evenodd" clip-rule="evenodd" d="M80 40C80 62.0914 62.0914 80 40 80C17.9086 80 0 62.0914 0 40C0 17.9086 17.9086 0 40 0C62.0914 0 80 17.9086 80 40ZM40 78.3333C61.1709 78.3333 78.3333 61.1709 78.3333 40C78.3333 18.8291 61.1709 1.66667 40 1.66667C18.8291 1.66667 1.66667 18.8291 1.66667 40C1.66667 61.1709 18.8291 78.3333 40 78.3333Z" fill="black" fill-opacity="0.12"/>
</g>
<defs>
<clipPath id="clip0_3974_7108">
<rect width="80" height="80" fill="white"/>
</clipPath>
</defs>
</svg>
