<svg width="80" height="80" viewBox="0 0 80 80" fill="none" xmlns="http://www.w3.org/2000/svg">
<g clip-path="url(#clip0_3974_7106)">
<path d="M80 40C80 62.0914 62.0914 80 40 80C17.9086 80 0 62.0914 0 40C0 17.9086 17.9086 0 40 0C62.0914 0 80 17.9086 80 40Z" fill="#163B77"/>
<path fill-rule="evenodd" clip-rule="evenodd" d="M80 40C80 62.0914 62.0914 80 40 80C17.9086 80 0 62.0914 0 40C0 17.9086 17.9086 0 40 0C62.0914 0 80 17.9086 80 40ZM40 78.3333C61.1709 78.3333 78.3333 61.1709 78.3333 40C78.3333 18.8291 61.1709 1.66667 40 1.66667C18.8291 1.66667 1.66667 18.8291 1.66667 40C1.66667 61.1709 18.8291 78.3333 40 78.3333Z" fill="black" fill-opacity="0.12"/>
<path fill-rule="evenodd" clip-rule="evenodd" d="M45.3393 38.995L45.2649 38.695C45.2835 38.8075 45.3207 38.9013 45.3393 38.995ZM41.7465 39.3137L41.8024 39.5574C41.7838 39.4824 41.7838 39.4074 41.7465 39.3137ZM35.5289 37.9638C35.2286 38.3219 34.8003 38.5463 34.3369 38.5884C33.8734 38.6305 33.4121 38.487 33.0531 38.1889C32.2898 37.514 32.1967 36.3703 32.8482 35.6017C33.7598 34.5324 34.9541 33.7457 36.2922 33.3332C36.7576 33.202 37.223 33.1083 37.707 33.0708C38.1967 33.0301 38.6891 33.0364 39.1776 33.0895C39.643 33.1458 40.127 33.2582 40.5737 33.4082C41.4633 33.7055 42.2857 34.177 42.9938 34.7955C43.3475 35.0955 43.6639 35.4329 43.9432 35.8079L44.3528 36.3704C43.6081 35.1893 42.5284 34.2331 41.2439 33.6707C40.5939 33.3752 39.9037 33.1793 39.1962 33.0895C38.7122 33.0333 38.2281 33.0145 37.7441 33.0708C36.7988 33.1489 35.8798 33.4234 35.045 33.8769L34.4492 34.2331L33.8908 34.6455C33.5349 34.9415 33.2047 35.2677 32.9041 35.6204M44.9484 37.6076C45.0042 37.7389 45.0228 37.8514 45.0787 37.9826C45.0228 37.8701 44.9856 37.7389 44.9484 37.6076L44.6506 36.9515C44.5761 36.8015 44.483 36.6703 44.4086 36.5391L44.6506 36.9702C44.7623 37.1765 44.8553 37.4014 44.9484 37.6076ZM41.7465 39.2762L41.7652 39.3137C41.7466 39.3137 41.7465 39.295 41.7465 39.2762Z" fill="white"/>
<path fill-rule="evenodd" clip-rule="evenodd" d="M41.1136 38.0576L40.8902 37.7951C40.7227 37.6264 40.5552 37.4764 40.369 37.3452C39.9781 37.064 39.5499 36.8765 39.0846 36.764C38.6005 36.6516 38.098 36.6515 37.614 36.7453C37.3829 36.7854 37.1576 36.8547 36.9437 36.9515C36.7274 37.0413 36.5215 37.1545 36.3295 37.289C36.0356 37.4791 35.7719 37.713 35.5475 37.9826C35.9235 37.5305 36.4026 37.1768 36.9437 36.9515C38.191 36.4266 39.6244 36.6703 40.6297 37.5702C40.7972 37.7014 40.9647 37.8701 41.1136 38.0576L41.3742 38.4513C41.3556 38.4138 41.3371 38.3763 41.2998 38.3388L41.1136 38.0576ZM45.4511 40.4761C45.4511 39.9699 45.4138 39.4824 45.3208 38.995C45.4286 39.4808 45.4725 39.9788 45.4511 40.4761Z" fill="white"/>
<path fill-rule="evenodd" clip-rule="evenodd" d="M45.4324 39.7261C45.4138 39.4824 45.3766 39.2387 45.3393 38.995L45.2649 38.695L45.1719 38.3013L45.0602 37.9826C45.0229 37.8514 44.9857 37.7389 44.9299 37.6076L44.632 36.9515C44.5575 36.8015 44.4644 36.6703 44.3899 36.5203L44.2783 36.3328C43.9059 35.7516 43.4406 35.208 42.9193 34.7393C42.5656 34.4393 42.1934 34.1581 41.7838 33.9331C41.3743 33.6894 40.9461 33.5019 40.4993 33.352C40.0526 33.202 39.5872 33.0895 39.1032 33.0333C38.6192 32.977 38.1351 32.9583 37.6325 33.0145C37.1484 33.052 36.6832 33.1457 36.2178 33.277C35.771 33.4082 35.3428 33.5957 34.9146 33.8019C34.3036 34.1369 33.7401 34.553 33.2392 35.0392L32.7738 35.5455C32.1409 36.3141 32.2154 37.4577 32.96 38.1139C33.686 38.7513 34.8029 38.6763 35.4358 37.9451L35.4545 37.9264C35.7523 37.5702 36.1246 37.2702 36.5342 37.0452C36.739 36.9328 36.9623 36.839 37.1857 36.7828C37.6551 36.6363 38.15 36.5916 38.6378 36.6516L38.9915 36.7078C39.4569 36.8203 39.885 37.0078 40.276 37.289C40.4621 37.4202 40.6482 37.5702 40.7971 37.7389L41.0205 38.0014L41.2253 38.2826C41.2439 38.3201 41.2626 38.3576 41.2998 38.3951L41.4115 38.5826C41.5285 38.7945 41.6162 39.0216 41.6721 39.2574L41.7279 39.4824L41.7466 39.5949C41.8021 39.8407 41.821 40.0935 41.8025 40.3448C41.8073 40.7157 41.7441 41.0843 41.6162 41.4322C41.5424 41.6587 41.4491 41.8783 41.3371 42.0883C41.2254 42.2946 41.095 42.482 40.9461 42.6695C40.7972 42.857 40.6296 43.0257 40.4434 43.157C40.2573 43.3069 40.0711 43.4382 39.8664 43.5506C39.2211 43.894 38.4874 44.0313 37.7628 43.9443H37.7441L37.4091 43.8881C37.1857 43.8318 36.9437 43.7569 36.7389 43.6631C36.1991 43.4194 35.5476 43.4569 35.045 43.7944C34.5423 44.1318 34.2259 44.6943 34.2259 45.3129L34.1327 56.374C34.1277 56.8531 34.3107 57.3149 34.6418 57.6589C34.973 58.0029 35.4255 58.2014 35.9012 58.2113H35.9198C36.8879 58.2113 37.6884 57.4051 37.707 56.4115L37.7628 50.5998L37.7814 47.6001C38.1226 47.622 38.465 47.6157 38.8052 47.5814C39.7506 47.5032 40.6697 47.2288 41.5045 46.7752C41.9139 46.5587 42.3006 46.3012 42.6587 46.0066C43.0146 45.7106 43.3448 45.3845 43.6454 45.0317C44.2597 44.3006 44.7064 43.4757 45.0043 42.5758C45.1532 42.1071 45.2649 41.6384 45.3207 41.151C45.358 40.9072 45.358 40.6635 45.3766 40.4198V40.4011C45.4697 40.2323 45.451 39.9886 45.4324 39.7261Z" fill="white"/>
<path d="M34.3189 45.4441L34.2259 56.449C34.2209 56.9281 34.4038 57.3898 34.7349 57.7339C35.0661 58.0779 35.5186 58.2764 35.9943 58.2863H36.0129C36.9995 58.2863 37.7814 57.4801 37.8001 56.4864L37.8558 50.6747L37.8745 47.6751H37.7442L37.4277 47.6376C37.2043 47.6188 36.9623 47.5813 36.739 47.5251C36.2736 47.4126 35.8268 47.2814 35.3987 47.0939C34.7099 46.794 34.3003 46.0441 34.3189 45.3129V45.4441Z" fill="white"/>
<path d="M34.3189 45.4441L34.2259 56.449C34.2209 56.9281 34.4038 57.3898 34.7349 57.7339C35.0661 58.0779 35.5186 58.2764 35.9943 58.2863H36.0129C36.9995 58.2863 37.7814 57.4801 37.8001 56.4864L37.8558 50.6747L37.8745 47.6751H37.7442L37.4277 47.6376C37.2043 47.6188 36.9623 47.5813 36.739 47.5251C36.2736 47.4126 35.8268 47.2814 35.3987 47.0939C34.7099 46.794 34.3003 46.0441 34.3189 45.3129V45.4441Z" fill="white"/>
<path fill-rule="evenodd" clip-rule="evenodd" d="M17.2112 21.3254C17.3939 21.3255 17.5738 21.2812 17.7358 21.1964C17.8978 21.1115 18.0372 20.9886 18.142 20.8379L19.7243 18.8319C20.843 17.5741 22.0772 16.4255 23.4103 15.4012C24.7311 14.4018 26.1539 13.5471 27.6546 12.8515C29.1574 12.1533 30.7301 11.6191 32.3458 11.258C34.8428 10.6932 37.4153 10.5475 39.9595 10.8267C41.7466 11.0142 43.4965 11.4079 45.2091 11.9891L47.7037 12.964C48.2807 13.2265 48.9695 12.9639 49.2302 12.3828C49.4908 11.7641 49.2301 11.0704 48.6344 10.808C47.7409 10.3955 46.8473 10.0394 45.9165 9.73941C43.1614 8.80203 40.2574 8.33334 37.3534 8.33334C35.4918 8.33334 33.6488 8.53954 31.8431 8.95199C30.0746 9.34569 28.3433 9.94561 26.7052 10.7143C24.2293 11.8766 21.9582 13.4139 19.9477 15.2887C18.5887 16.5448 17.3601 17.9508 16.2804 19.4694C15.9081 19.9943 16.0199 20.7255 16.5411 21.1192C16.7389 21.254 16.9724 21.3259 17.2112 21.3254Z" fill="white"/>
<path fill-rule="evenodd" clip-rule="evenodd" d="M64.253 52.1745C64.1126 52.1172 63.9622 52.0887 63.8108 52.0907C63.6593 52.0928 63.5098 52.1254 63.3711 52.1865C63.2323 52.2477 63.107 52.3362 63.0027 52.4468C62.8984 52.5574 62.8171 52.6879 62.7636 52.8307C62.0991 54.5818 61.257 56.2592 60.2506 57.8362C59.3017 59.3212 58.2106 60.7089 56.9928 61.9794C55.8131 63.2012 54.509 64.2946 53.1021 65.2416C51.0525 66.6383 48.7972 67.7012 46.4192 68.3911C44.8397 68.8463 43.2176 69.1352 41.579 69.2535C40.7489 69.313 39.9161 69.3255 39.0846 69.291C38.2431 69.2563 37.4041 69.1749 36.5714 69.0473C35.7244 68.9212 34.8853 68.7459 34.0584 68.5224C33.444 68.3724 32.8111 68.7473 32.6436 69.366C32.476 70.0034 32.8483 70.6409 33.4813 70.8096C36.1703 71.5176 38.954 71.7897 41.728 71.6157C43.5337 71.5032 45.3208 71.1845 47.052 70.6783C48.7833 70.1722 50.4587 69.4973 52.0597 68.6349C54.4983 67.3225 56.7136 65.6352 58.6497 63.6292C59.9834 62.248 61.1746 60.7342 62.2052 59.1111C63.2871 57.4068 64.1976 55.5981 64.9231 53.7118C65.0333 53.4182 65.0248 53.0928 64.8995 52.8054C64.7742 52.5181 64.5421 52.2916 64.253 52.1745ZM53.3255 24.7093C54.6844 26.2279 55.8386 27.9151 56.7322 29.7524C57.6781 31.6606 58.3548 33.6925 58.7427 35.7891C59.4184 39.4329 59.2592 43.1839 58.2773 46.7564C57.9031 48.1124 57.4046 49.4304 56.7881 50.6934C56.4902 51.3121 56.1551 51.912 55.8014 52.4932L54.6659 54.1805C54.275 54.7054 54.3866 55.4366 54.8893 55.849C55.0075 55.9421 55.143 56.0106 55.2877 56.0506C55.4325 56.0906 55.5836 56.1014 55.7324 56.0822C55.8813 56.063 56.0249 56.0143 56.155 55.9389C56.2851 55.8635 56.399 55.7628 56.4902 55.6428C57.4023 54.4055 58.2029 53.1119 58.8544 51.7433C59.8783 49.6248 60.6229 47.3938 61.0324 45.0691C61.3303 43.4569 61.4793 41.8258 61.4606 40.1948C61.4606 38.5596 61.3109 36.928 61.0138 35.3204C60.5859 33.0091 59.8403 30.7691 58.7985 28.665C57.7987 26.6373 56.5272 24.7575 55.0196 23.0782L53.4558 21.5034C52.9904 21.0722 52.2644 21.1097 51.8363 21.5784C51.3895 22.0846 51.4268 22.8345 51.9108 23.2657L53.3255 24.7093ZM35.7896 18.4851C37.7792 18.2625 39.7916 18.3701 41.7466 18.8038C43.0125 19.085 44.2597 19.5162 45.4325 20.0599C45.7091 20.1878 46.0249 20.2005 46.3108 20.0952C46.5967 19.9898 46.8296 19.775 46.959 19.4975C47.2382 18.8788 46.9962 18.1851 46.4005 17.9039C45.0788 17.2853 43.6827 16.8165 42.2493 16.4791C41.5233 16.3104 40.7973 16.1979 40.0527 16.1042C39.3052 16.0138 38.5529 15.9699 37.8001 15.9729C34.8216 15.9729 31.899 16.6291 29.1997 17.9039C27.878 18.5226 26.6307 19.2912 25.4579 20.1536C24.2852 21.0347 23.1868 22.0284 22.2188 23.1345C22.009 23.3657 21.899 23.6714 21.913 23.9843C21.9269 24.2972 22.0637 24.5917 22.2933 24.803C22.7586 25.2342 23.4846 25.2155 23.9128 24.7468C24.825 23.7532 25.793 22.8533 26.8541 22.0471C27.8966 21.2597 29.0135 20.5848 30.2049 20.0411C31.3777 19.4787 32.6064 19.0475 33.8909 18.7663L35.7896 18.4851Z" fill="white"/>
<path fill-rule="evenodd" clip-rule="evenodd" d="M17.7139 44.756C17.4384 43.2976 17.3012 41.8162 17.3043 40.3316C17.3043 38.8506 17.4346 37.3508 17.6952 35.8885C18.0862 33.7887 18.7377 31.764 19.6871 29.833C19.9664 29.2518 19.7429 28.5394 19.1658 28.2394C18.6074 27.9582 17.8999 28.1832 17.6207 28.7457C16.9505 30.1517 16.3922 31.614 15.964 33.1138C15.5358 34.6511 15.238 36.2446 15.1076 37.8382C14.8843 40.2941 15.0146 42.7688 15.4427 45.1873C15.5544 45.8247 16.1687 46.2371 16.8016 46.1246C17.4346 46.0122 17.8442 45.3935 17.7139 44.756Z" fill="white"/>
<path fill-rule="evenodd" clip-rule="evenodd" d="M30.5586 61.0046C29.5905 60.6297 28.6598 60.1798 27.7662 59.6548C26.0536 58.6237 24.4899 57.3489 23.1496 55.8491C22.2392 54.8505 21.4286 53.7642 20.7296 52.6057L19.7429 50.806C19.6102 50.5317 19.3758 50.3211 19.0902 50.2194C18.8047 50.1176 18.4908 50.133 18.2164 50.2623C17.9351 50.4066 17.7223 50.6575 17.6245 50.9598C17.5268 51.2621 17.5523 51.5911 17.6952 51.8746C18.6883 53.9062 19.9604 55.7869 21.4741 57.4614C22.4049 58.4738 23.4101 59.4111 24.4898 60.236C26.1094 61.4733 27.8966 62.4857 29.7954 63.2168C30.3911 63.4418 31.0612 63.1231 31.2846 62.5232C31.4521 61.9045 31.1543 61.2296 30.5586 61.0046ZM41.1509 62.8606C41.1509 63.5168 41.6721 64.0417 42.305 64.0417C42.4912 64.0417 46.9031 63.9855 51.7618 59.7298C51.9951 59.5236 52.1392 59.2338 52.1636 58.9222C52.1879 58.6106 52.0905 58.3017 51.8921 58.0613C51.6965 57.826 51.4164 57.6783 51.113 57.6502C50.8096 57.6221 50.5075 57.716 50.2726 57.9113C46.084 61.5858 42.3608 61.6608 42.2864 61.6796C41.9818 61.6893 41.6931 61.818 41.4812 62.0385C41.2692 62.2589 41.1507 62.5538 41.1509 62.8606ZM36.0129 61.4171C35.0263 61.4171 34.2444 62.2232 34.2444 63.2168C34.2444 64.2105 35.0263 65.0167 36.0129 65.0167C36.9996 65.0167 37.7814 64.2105 37.7814 63.2168C37.7628 62.2232 36.9809 61.4171 36.0129 61.4171ZM26.4631 37.8701C26.812 36.1117 27.5374 34.4509 28.5887 33.0037C29.64 31.5564 30.992 30.3573 32.5504 29.49C33.2407 29.1126 33.9634 28.7989 34.7098 28.5526C35.473 28.3089 36.2736 28.1401 37.074 28.0651C38.305 27.9398 39.5477 28.003 40.7599 28.2526C42.6959 28.6651 44.5016 29.5462 46.0095 30.821C46.3074 31.0647 46.5866 31.346 46.8659 31.6272C47.4116 32.1924 47.9039 32.8074 48.3365 33.4644C48.7646 34.1206 49.1556 34.833 49.4535 35.5642C49.8816 36.5765 51.0172 37.064 52.0224 36.6328C53.0277 36.2016 53.4745 35.0205 53.0649 34.0081C52.6554 33.0333 52.1713 32.0959 51.5942 31.2335C50.7319 29.9307 49.6916 28.7569 48.5041 27.7465C47.3127 26.7341 45.9723 25.9092 44.5389 25.2905L43.0683 24.7468C42.5657 24.5781 42.0444 24.4469 41.5232 24.3531C39.3932 23.9031 37.1935 23.9031 35.0635 24.3531L33.5185 24.7468L32.0478 25.2905C30.6187 25.9077 29.2887 26.7354 28.1013 27.7465L26.9657 28.7963C26.599 29.1658 26.251 29.5537 25.9233 29.9587L24.9925 31.2148C24.115 32.5377 23.4374 33.9845 22.982 35.5079L22.5911 37.0827C22.3677 38.1701 22.2746 39.2762 22.2746 40.3823C22.2746 41.4884 22.3863 42.5945 22.5911 43.6819C22.6842 44.1693 22.8144 44.6755 22.9633 45.163C23.5777 42.782 24.7319 40.5698 26.3142 38.695L26.4631 37.8701Z" fill="white"/>
<path fill-rule="evenodd" clip-rule="evenodd" d="M23.5591 46.7564C23.95 47.7313 24.4527 48.6687 25.0298 49.5499C25.6031 50.417 26.2576 51.2268 26.9844 51.9683C27.729 52.7369 28.9576 52.7557 29.7395 51.987C30.5213 51.1809 30.5213 49.9248 29.7581 49.1374C28.6412 48.0126 27.7662 46.6627 27.1519 45.2004C26.5184 43.6746 26.1956 42.0361 26.2026 40.3823L26.2584 39.1075L26.3143 38.6762C24.7319 40.551 23.5777 42.7632 22.9633 45.1442C22.982 45.1817 22.982 45.2191 22.982 45.2379L23.5591 46.7564Z" fill="white"/>
<path fill-rule="evenodd" clip-rule="evenodd" d="M23.5591 46.7564C23.95 47.7313 24.4527 48.6687 25.0298 49.5499C25.6031 50.417 26.2576 51.2268 26.9844 51.9683C27.729 52.7369 28.9576 52.7557 29.7395 51.987C30.5213 51.1809 30.5213 49.9248 29.7581 49.1374C28.6412 48.0126 27.7662 46.6627 27.1519 45.2004C26.5184 43.6746 26.1956 42.0361 26.2026 40.3823L26.2584 39.1075L26.3143 38.6762C24.7319 40.551 23.5777 42.7632 22.9633 45.1442C22.982 45.1817 22.982 45.2191 22.982 45.2379L23.5591 46.7564ZM52.0411 44.1318C51.0545 43.7006 49.9002 44.1693 49.4906 45.1817C49.0252 46.3065 48.411 47.3377 47.6663 48.2563C46.6797 49.4749 45.4697 50.506 44.0922 51.2746C43.7571 51.4621 43.4034 51.6308 43.0311 51.7995C42.5485 52.0099 42.1681 52.4038 41.9728 52.8955C41.7775 53.3872 41.7832 53.9367 41.9886 54.4242C42.3981 55.4366 43.5337 55.9053 44.5389 55.4928C45.501 55.0837 46.418 54.5748 47.2754 53.9743C48.1297 53.3891 48.9219 52.7168 49.6396 51.9683C50.3619 51.2229 51.0161 50.4135 51.5942 49.5499C52.1713 48.6687 52.674 47.7313 53.0836 46.7752C53.5117 45.7441 53.0463 44.563 52.0411 44.1318Z" fill="white"/>
</g>
<defs>
<clipPath id="clip0_3974_7106">
<rect width="80" height="80" fill="white"/>
</clipPath>
</defs>
</svg>
