<svg width="80" height="80" viewBox="0 0 80 80" fill="none" xmlns="http://www.w3.org/2000/svg">
<g clip-path="url(#clip0_3574_5302)">
<path d="M80 40C80 62.0914 62.0914 80 40 80C17.9086 80 0 62.0914 0 40C0 17.9086 17.9086 0 40 0C62.0914 0 80 17.9086 80 40Z" fill="white"/>
<path fill-rule="evenodd" clip-rule="evenodd" d="M80 40C80 62.0914 62.0914 80 40 80C17.9086 80 0 62.0914 0 40C0 17.9086 17.9086 0 40 0C62.0914 0 80 17.9086 80 40ZM40 78.3333C61.1709 78.3333 78.3333 61.1709 78.3333 40C78.3333 18.8291 61.1709 1.66667 40 1.66667C18.8291 1.66667 1.66667 18.8291 1.66667 40C1.66667 61.1709 18.8291 78.3333 40 78.3333Z" fill="black" fill-opacity="0.12"/>
<path fill-rule="evenodd" clip-rule="evenodd" d="M59.6667 24.971L39.8333 16.6667L20 25.0123V40.5303C20 51.1995 28.8797 59.8485 39.8333 59.8485C44.046 59.8485 47.9519 58.5692 51.1639 56.3878L60.6918 65.6682C62.0586 66.9995 64.2747 66.9995 65.6415 65.6682C67.0084 64.3368 67.0084 62.1783 65.6415 60.847L56.1136 51.5666C58.3533 48.438 59.6667 44.6335 59.6667 40.5303V24.971ZM27 40.5303V29.4615L39.8333 24.0881L52.6667 29.4615V40.5303C52.6667 47.4339 46.921 53.0303 39.8333 53.0303C32.7457 53.0303 27 47.4339 27 40.5303Z" fill="#D35357"/>
</g>
<defs>
<clipPath id="clip0_3574_5302">
<rect width="80" height="80" fill="white"/>
</clipPath>
</defs>
</svg>
