<svg width="80" height="80" viewBox="0 0 80 80" fill="none" xmlns="http://www.w3.org/2000/svg">
<g clip-path="url(#clip0_3974_7107)">
<path d="M80 40C80 62.0914 62.0914 80 40 80C17.9086 80 0 62.0914 0 40C0 17.9086 17.9086 0 40 0C62.0914 0 80 17.9086 80 40Z" fill="white"/>
<path d="M31.3274 38.6435C30.8217 38.6435 30.4677 38.2465 30.4677 37.7998V33.0356C30.4677 27.8743 34.7661 23.6559 40.0253 23.6559C41.8963 23.6559 43.7168 24.2018 45.2844 25.1944C45.689 25.4425 45.7901 25.9884 45.5373 26.3854C45.2844 26.7825 44.7282 26.8817 44.3236 26.6336C43.0594 25.7899 41.5423 25.3929 40.0253 25.3929C35.7269 25.3929 32.1871 28.8172 32.1871 33.0852V37.8495C32.1871 38.2961 31.7825 38.6435 31.3274 38.6435Z" fill="#343A40"/>
<path d="M59.1403 43.2093C58.6346 43.2093 58.2806 42.8122 58.2806 42.3656V33.0356C58.2806 28.9661 56.9153 25.0951 54.3363 21.9189C54.0329 21.5716 54.0834 21.0256 54.488 20.7279C54.842 20.4301 55.3982 20.4797 55.7016 20.8768C58.5335 24.4003 60 28.5691 60 33.0356V42.3656C60 42.8619 59.646 43.2093 59.1403 43.2093Z" fill="#343A40"/>
<path d="M23.641 24.1522C23.4893 24.1522 23.3376 24.1026 23.1858 24.0529C22.7813 23.8048 22.6296 23.3085 22.8824 22.8619C24.6523 20.0331 27.1302 17.651 30.0632 15.9636C33.0973 14.2763 36.536 13.3333 40.0253 13.3333C44.4753 13.3333 48.6726 14.7229 52.1618 17.3532C52.5664 17.651 52.6169 18.1969 52.3135 18.5443C52.0101 18.9413 51.4538 18.9909 51.0999 18.6931C47.8635 16.3606 44.0708 15.1199 40.0253 15.1199C33.5525 15.1199 27.737 18.3457 24.3995 23.7552C24.1972 24.0529 23.9444 24.1522 23.641 24.1522Z" fill="#343A40"/>
<path d="M27.8382 61.3234C27.6359 61.3234 27.4336 61.2738 27.2819 61.1249C22.6802 57.4028 20 51.8941 20 45.9884V33.0356C20 30.7031 20.4046 28.4698 21.2137 26.2862C21.3654 25.8395 21.871 25.641 22.3262 25.7899C22.7813 25.9388 23.0341 26.4351 22.8319 26.8817C22.0733 28.8668 21.7193 30.9016 21.7193 33.0356V45.9884C21.7193 51.3482 24.1466 56.4103 28.3944 59.8346C28.7484 60.1323 28.799 60.6782 28.4956 61.0256C28.3439 61.2242 28.091 61.3234 27.8382 61.3234Z" fill="#343A40"/>
<path d="M40.0253 65.641C36.9406 65.641 34.0076 64.9462 31.2263 63.6559C30.7712 63.4574 30.6195 62.9611 30.8218 62.5145C31.024 62.0678 31.5297 61.9189 31.9848 62.1175C34.5133 63.3085 37.1934 63.9537 40.0253 63.9537C50.0885 63.9537 58.2807 55.914 58.2807 46.0381C58.2807 45.5418 58.6852 45.1944 59.1403 45.1944C59.646 45.1944 60 45.5914 60 46.0381C60 56.8073 51.0493 65.641 40.0253 65.641Z" fill="#343A40"/>
<path d="M40.0253 62.2167C30.9229 62.2167 23.4893 54.9214 23.4893 45.9884V44.5492C23.4893 44.053 23.8938 43.7056 24.3489 43.7056C24.8041 43.7056 25.2086 44.1026 25.2086 44.5492V45.9884C25.2086 53.9785 31.8331 60.4797 39.9747 60.4797C41.6435 60.4797 43.3123 60.182 44.8799 59.6361C45.335 59.4872 45.8407 59.7353 45.9924 60.1323C46.1441 60.579 45.8913 61.0753 45.4867 61.2242C43.7674 61.919 41.8963 62.2167 40.0253 62.2167Z" fill="#343A40"/>
<path d="M48.3186 59.8842C48.0152 59.8842 47.7623 59.7353 47.56 59.4872C47.3072 59.0902 47.4083 58.5443 47.8129 58.2961C52.1618 55.6162 54.7408 51.0008 54.7408 45.9884V34.4251C54.7408 33.9289 55.1454 33.5815 55.6005 33.5815C56.0556 33.5815 56.4602 33.9785 56.4602 34.4251V45.9884C56.4602 51.5964 53.5777 56.7576 48.7231 59.7353C48.622 59.8346 48.4703 59.8842 48.3186 59.8842Z" fill="#343A40"/>
<path d="M55.4994 31.6956C55.0948 31.6956 54.6903 31.3979 54.6397 30.9512C53.78 25.1448 49.33 20.3309 43.5651 18.9413C43.11 18.842 42.8066 18.3457 42.9077 17.8991C43.0088 17.4524 43.5145 17.1547 43.9697 17.2539C47.1555 18.048 49.9874 19.6857 52.2124 22.1175C54.4374 24.5492 55.8533 27.5269 56.359 30.7031C56.4096 31.1497 56.1062 31.5964 55.6005 31.646C55.6005 31.6956 55.5499 31.6956 55.4994 31.6956Z" fill="#343A40"/>
<path d="M24.3489 42.1175C23.8432 42.1175 23.4893 41.7204 23.4893 41.2738V33.0356C23.4893 24.1026 30.9229 16.8073 40.0253 16.8073C40.531 16.8073 40.885 17.2043 40.885 17.651C40.885 18.0976 40.4804 18.4946 40.0253 18.4946C31.8837 18.4946 25.2592 24.9959 25.2592 32.9859V41.2242C25.2086 41.7701 24.8546 42.1175 24.3489 42.1175Z" fill="#343A40"/>
<path d="M40.0253 58.7924C32.8445 58.7924 26.9785 53.0356 26.9785 45.9884V33.0356C26.9785 29.7601 28.2428 26.6336 30.5184 24.2515C30.8723 23.9041 31.378 23.9041 31.732 24.2018C32.086 24.5492 32.086 25.0455 31.7826 25.3929C29.8104 27.4773 28.6979 30.1572 28.6979 32.986V45.9388C28.6979 52.043 33.7548 57.0554 40.0253 57.0554C43.1606 57.0554 46.1441 55.7651 48.3186 53.5319C48.622 53.1845 49.1783 53.1845 49.5322 53.4822C49.8862 53.78 49.8862 54.3259 49.5828 54.6733C47.1049 57.3036 43.6157 58.7924 40.0253 58.7924Z" fill="#343A40"/>
<path d="M47.8129 33.0356V36.0629C48.4197 35.7651 48.976 35.4673 49.5322 35.2688V33.0852C49.5322 31.5467 49.1277 30.0083 48.4197 28.6683C48.2174 28.2713 47.6612 28.0728 47.2566 28.3209C46.8521 28.5194 46.6498 29.0653 46.9027 29.4624C47.5095 30.5046 47.8129 31.7452 47.8129 33.0356Z" fill="#343A40"/>
<path fill-rule="evenodd" clip-rule="evenodd" d="M51.9595 36.2614C51.555 35.517 43.3628 39.1398 39.6207 45.1447C39.0645 44.1522 38.8116 43.5567 38.3565 42.8619C37.6485 41.7204 35.2212 42.316 35.2212 44.1026C38.0025 51.5467 40.6827 52.2912 41.694 49.2639C45.335 40.0331 52.3641 37.0058 51.9595 36.2614Z" fill="#6C757D"/>
<path d="M47.56 42.5641C45.689 44.6981 44.2225 47.1299 43.1605 49.8098C42.9077 50.5542 42.6043 51.1497 42.1491 51.5467C41.5929 52.1423 40.8849 52.44 40.1264 52.44C38.9127 52.44 37.7497 51.6956 36.6877 50.2068C35.7269 48.9165 34.7661 47.0306 33.8558 44.5989L33.7547 44.3507V44.1026C33.7547 43.11 34.1593 42.2663 34.9178 41.6212C35.5246 41.0753 36.3843 40.7775 37.1934 40.7775C38.2553 40.7775 39.1656 41.2738 39.6713 42.0678C39.7218 42.1671 39.7724 42.2167 39.823 42.316C41.6435 40.0827 43.8685 38.445 45.5373 37.3532C45.689 37.2539 45.8912 37.1051 46.0935 37.0058V33.0356C46.0935 31.4475 45.4361 29.9587 44.3236 28.8172C43.1605 27.6758 41.6435 27.0802 40.0253 27.0802C36.6877 27.0802 33.957 29.7601 33.957 33.0356V38.7924C31.8331 40.5294 30.4677 43.11 30.4677 46.0381C30.4677 51.1994 34.7661 55.4177 40.0253 55.4177C45.2844 55.4177 49.5828 51.1994 49.5828 46.0381C49.5828 44.45 49.1782 42.9115 48.4703 41.6212C48.1668 41.8693 47.8634 42.2167 47.56 42.5641ZM35.6763 33.0356C35.6763 30.7031 37.6485 28.7676 40.0253 28.7676C41.1883 28.7676 42.3009 29.2142 43.11 30.0083C43.9191 30.8023 44.3742 31.8941 44.3742 33.0356V37.651C43.0594 37.0058 41.5929 36.6088 40.0253 36.6088C38.4576 36.6088 36.9911 37.0058 35.6763 37.651V33.0356Z" fill="#FEC111"/>
<path d="M52.7686 37.7998C52.5158 38.048 52.1112 38.3457 51.6561 38.7428C51.555 38.842 51.4033 38.9413 51.3021 39.0405V46.0381C51.3021 47.7254 50.9481 49.3631 50.1896 50.852C49.9873 51.2986 50.139 51.7949 50.5942 51.9934C50.6953 52.043 50.847 52.0926 50.9481 52.0926C51.2515 52.0926 51.6055 51.8941 51.7067 51.5964C52.5663 49.8594 53.0215 47.9735 53.0215 46.0381V37.4524C52.9709 37.5517 52.8697 37.7006 52.7686 37.7998Z" fill="#343A40"/>
<path d="M34.311 23.4574C36.0304 22.4649 38.0025 21.9686 40.0253 21.9686C46.2453 21.9686 51.3527 26.9314 51.3527 33.0852V34.7725C51.5044 34.7725 51.6056 34.7229 51.7573 34.7229C52.4147 34.7229 52.8698 35.0207 53.1226 35.2688V33.0852C53.1226 26.0381 47.2566 20.2812 40.0759 20.2812C37.7497 20.2812 35.4741 20.8768 33.5019 22.0182C33.0974 22.2663 32.9457 22.7626 33.1985 23.2093C33.3502 23.5567 33.9065 23.6559 34.311 23.4574Z" fill="#343A40"/>
<path fill-rule="evenodd" clip-rule="evenodd" d="M40 78.3333C61.1709 78.3333 78.3333 61.1709 78.3333 40C78.3333 18.8291 61.1709 1.66667 40 1.66667C18.8291 1.66667 1.66667 18.8291 1.66667 40C1.66667 61.1709 18.8291 78.3333 40 78.3333ZM40 80C62.0914 80 80 62.0914 80 40C80 17.9086 62.0914 0 40 0C17.9086 0 0 17.9086 0 40C0 62.0914 17.9086 80 40 80Z" fill="black" fill-opacity="0.12"/>
</g>
<defs>
<clipPath id="clip0_3974_7107">
<rect width="80" height="80" fill="white"/>
</clipPath>
</defs>
</svg>
