<svg width="80" height="80" viewBox="0 0 80 80" fill="none" xmlns="http://www.w3.org/2000/svg">
<g clip-path="url(#clip0_3974_7109)">
<path d="M80 40C80 62.0914 62.0914 80 40 80C17.9086 80 0 62.0914 0 40C0 17.9086 17.9086 0 40 0C62.0914 0 80 17.9086 80 40Z" fill="#D21847"/>
<path fill-rule="evenodd" clip-rule="evenodd" d="M40 78.3333C61.1709 78.3333 78.3333 61.1709 78.3333 40C78.3333 18.8291 61.1709 1.66667 40 1.66667C18.8291 1.66667 1.66667 18.8291 1.66667 40C1.66667 61.1709 18.8291 78.3333 40 78.3333ZM40 80C62.0914 80 80 62.0914 80 40C80 17.9086 62.0914 0 40 0C17.9086 0 0 17.9086 0 40C0 62.0914 17.9086 80 40 80Z" fill="black" fill-opacity="0.12"/>
<path d="M46.5789 22.0833C46.5789 25.9954 43.2407 29.1667 39.1228 29.1667C35.0049 29.1667 31.6666 25.9954 31.6666 22.0833C31.6666 18.1713 35.0049 15 39.1228 15C43.2407 15 46.5789 18.1713 46.5789 22.0833Z" fill="white"/>
<path d="M31.6666 30.4167V32.6926C31.6666 32.994 31.9963 33.2021 32.2991 33.1122C32.6352 33.0125 33.0537 32.9167 33.421 32.9167C33.9417 32.9167 34.5651 33.1092 34.9111 33.2325C35.0734 33.2904 35.1754 33.4295 35.1754 33.5943V57.5C35.1754 59.1667 36.0526 61.6667 38.6842 61.6667H44.8245C47.4561 61.6667 48.3333 61.6667 48.3333 60.8333C48.3333 59.1667 44.8245 60 44.8245 58.75V35C44.8245 31.9328 42.9742 30 39.1228 30H32.1044C31.8622 30 31.6666 30.1865 31.6666 30.4167Z" fill="#000100"/>
</g>
<defs>
<clipPath id="clip0_3974_7109">
<rect width="80" height="80" fill="white"/>
</clipPath>
</defs>
</svg>
