<svg width="80" height="80" viewBox="0 0 80 80" fill="none" xmlns="http://www.w3.org/2000/svg">
<g clip-path="url(#clip0_3974_7077)">
<path d="M80 40C80 62.0914 62.0914 80 40 80C17.9086 80 0 62.0914 0 40C0 17.9086 17.9086 0 40 0C62.0914 0 80 17.9086 80 40Z" fill="#2C5784"/>
<path fill-rule="evenodd" clip-rule="evenodd" d="M40 78.3333C61.1709 78.3333 78.3333 61.1709 78.3333 40C78.3333 18.8291 61.1709 1.66667 40 1.66667C18.8291 1.66667 1.66667 18.8291 1.66667 40C1.66667 61.1709 18.8291 78.3333 40 78.3333ZM40 80C62.0914 80 80 62.0914 80 40C80 17.9086 62.0914 0 40 0C17.9086 0 0 17.9086 0 40C0 62.0914 17.9086 80 40 80Z" fill="black" fill-opacity="0.12"/>
<path d="M62.1646 15.5449C58.7142 12.3773 54.5987 10.1583 50.1725 9.07921C45.7464 8.00008 41.1423 8.09313 36.7571 9.35035C32.3719 10.6076 28.337 12.9913 25 16.296C28.4783 13.5464 32.5288 11.75 36.7998 11.0629C41.0709 10.3758 45.4335 10.8187 49.5091 12.3532C53.5847 13.8876 57.2501 16.4672 60.1874 19.8682C63.1246 23.2691 65.2448 27.3887 66.3641 31.8693C67.4833 36.3499 67.5678 41.0563 66.6101 45.5799C65.6525 50.1035 63.6816 54.3078 60.8687 57.8278C58.0557 61.3479 54.4855 64.0774 50.468 65.7794C46.4505 67.4815 42.107 68.1046 37.8144 67.5949C42.2399 68.6688 46.8421 68.5701 51.224 67.3073C55.606 66.0445 59.6362 63.6555 62.967 60.3464C66.2978 57.0373 69.0108 52.9719 70.3429 48.3131C72.9262 39.2782 72.4709 26.616 62.1646 15.5449Z" fill="#418EF2"/>
<path d="M20.2836 33.9493C19.6608 33.9493 18.8319 33.9401 17.7969 33.9217C17.4959 35.7296 17.2207 37.3171 16.9716 38.6842C16.7224 40.0516 16.4856 41.2996 16.261 42.4282C16.0363 43.5568 15.8407 44.4835 15.6741 45.2086C15.5073 45.9335 15.2826 46.8557 15 47.9751C16.1029 47.9568 16.9929 47.9476 17.6702 47.9477C18.3556 47.9477 19.1711 47.9568 20.1166 47.9751C20.2601 47.0392 20.5477 45.2682 20.9795 42.662C21.2207 41.194 21.472 39.8038 21.7335 38.4915C21.9952 37.1794 22.3275 35.6561 22.7305 33.9217C21.6659 33.9402 20.8503 33.9494 20.2836 33.9493ZM61.5387 37.8927C61.3804 37.0312 61.0201 36.2361 60.497 35.594C59.9195 34.9031 59.2039 34.3856 58.4127 34.0868C57.5207 33.7321 56.5827 33.5552 55.639 33.5638C54.5678 33.5657 53.5036 33.7632 52.486 34.1488C51.4952 34.5081 50.5705 35.075 49.7585 35.8211C49.0179 36.497 48.3951 37.3284 47.9232 38.2713C47.4832 39.1592 47.179 40.1276 47.0237 41.1342C46.8697 42.0816 46.8811 43.0549 47.0573 43.9972C47.2181 44.8727 47.5822 45.6814 48.1107 46.3373C48.6944 47.03 49.4207 47.5414 50.2221 47.8238C51.1392 48.1696 52.0989 48.3416 53.0639 48.333C54.156 48.3346 55.2417 48.1395 56.2816 47.7549C57.2786 47.4002 58.1993 46.8069 58.9835 46.0138C59.6897 45.3116 60.2794 44.4674 60.7237 43.5225C61.1245 42.6438 61.4046 41.6988 61.5538 40.7212C61.7092 39.7863 61.7041 38.8253 61.5387 37.8927ZM56.7638 40.6663C56.661 41.3459 56.4576 42 56.1624 42.6002C55.9017 43.1588 55.5181 43.6287 55.0501 43.9628C54.6217 44.2645 54.1293 44.4241 53.6272 44.4239C53.335 44.4421 53.0433 44.3783 52.7772 44.2381C52.5111 44.0979 52.2785 43.8853 52.0993 43.6188C51.9111 43.2779 51.787 42.8955 51.7348 42.496C51.6827 42.0966 51.7038 41.689 51.7966 41.2994C51.8967 40.6284 52.0989 39.983 52.394 39.393C52.6563 38.8467 53.0379 38.3889 53.5011 38.0648C53.9342 37.7658 54.43 37.6087 54.9349 37.6106C55.367 37.5916 55.7925 37.7367 56.1459 38.0235C56.462 38.2904 56.681 38.6827 56.7608 39.1246C56.8503 39.6332 56.8513 40.1572 56.7638 40.6663ZM22.8929 32.1599C22.9463 31.8112 23.0006 31.5084 23.056 31.2513L23.3895 29.5446C23.4269 29.3519 23.4795 29.1134 23.5471 28.8289C22.8661 28.8474 22.075 28.8565 21.1736 28.8564C20.5193 28.8564 19.711 28.8473 18.7488 28.8289C18.7087 29.141 18.6746 29.3887 18.6466 29.5722C18.5496 30.2053 18.3935 31.0678 18.1783 32.1599C19.0586 32.1416 19.8736 32.1324 20.6235 32.1322C21.3493 32.1322 22.1058 32.1414 22.8929 32.1599ZM36.9511 34.3829C36.5619 34.0911 36.1287 33.8856 35.6739 33.7771C35.1335 33.6329 34.5804 33.5613 34.0257 33.5638C33.6218 33.5629 33.2185 33.5974 32.8192 33.667C32.4503 33.7305 32.0859 33.8249 31.7289 33.9492C31.3926 34.0681 31.0666 34.2224 30.7549 34.4102C30.4739 34.5759 30.206 34.7693 29.9542 34.9884C29.7325 35.1859 29.464 35.4543 29.1487 35.7937L29.555 33.9217C28.8094 33.9401 28.0332 33.9493 27.2265 33.9492C26.5316 33.9492 25.7062 33.94 24.7504 33.9217C24.3822 36.1701 23.9436 38.5536 23.4348 41.0723C22.926 43.5911 22.3972 45.8921 21.8485 47.9751C22.7841 47.9567 23.6507 47.9476 24.4481 47.9476C25.2054 47.9476 25.9813 47.9568 26.7759 47.9751C27.0498 46.3968 27.3495 44.8461 27.675 43.3227C27.8815 42.1861 28.2096 41.0834 28.6517 40.0398C28.934 39.4297 29.3409 38.9078 29.8372 38.5191C30.2463 38.1908 30.7304 38.0088 31.2289 37.9959C31.4594 37.9809 31.6896 38.0286 31.9011 38.135C32.1126 38.2414 32.2995 38.4036 32.4465 38.6085C32.6032 38.9366 32.7007 39.2977 32.7332 39.6703C32.7657 40.0428 32.7324 40.4191 32.6354 40.7764C32.5325 41.4462 32.3147 42.6047 31.9819 44.2519C31.6491 45.899 31.3825 47.1401 31.1821 47.9751C31.9658 47.9568 32.8319 47.9476 33.7805 47.9477C34.4818 47.9477 35.2336 47.9568 36.0358 47.9751C36.1636 47.1403 36.323 46.2319 36.514 45.2499L37.484 40.267C37.7257 39.1109 37.8733 38.3585 37.9268 38.0097C37.9986 37.5511 38.0299 37.0853 38.0203 36.6195C38.0113 36.1781 37.9091 35.7458 37.7226 35.3601C37.5348 34.9698 37.2707 34.6352 36.9511 34.3829ZM48.3557 34.0456H45.6047L45.656 33.6327C45.6921 33.1429 45.8926 32.6886 46.2148 32.3663C46.5289 32.1249 46.9013 32.0045 47.2785 32.0222C47.9836 32.0398 48.6798 32.2079 49.3318 32.5178C49.3996 31.5543 49.5335 30.343 49.7334 28.8839C49.123 28.6793 48.4998 28.5297 47.8693 28.4366C47.3761 28.3701 46.88 28.3357 46.3834 28.3333C45.8893 28.3326 45.396 28.3786 44.9085 28.471C44.4395 28.5581 43.987 28.7374 43.5707 29.0009C43.1954 29.2303 42.8575 29.533 42.5721 29.8957C42.3055 30.2542 42.1 30.6675 41.9665 31.1138C41.781 31.7604 41.6414 32.4232 41.549 33.0958C41.5082 33.362 41.4637 33.6787 41.4155 34.0457H39.7163C39.6448 34.4585 39.5162 35.1284 39.3304 36.0551C39.1444 36.9821 39.0176 37.5878 38.9502 37.8722H40.4099C39.4321 42.8457 38.7324 46.2134 38.3109 47.9751C39.2233 47.9568 40.0226 47.9477 40.7089 47.9477C41.3873 47.9477 42.1998 47.9568 43.1464 47.9751L45.09 37.8722H47.5778C47.8708 36.3765 48.1301 35.101 48.3557 34.0456Z" fill="white"/>
</g>
<defs>
<clipPath id="clip0_3974_7077">
<rect width="80" height="80" fill="white"/>
</clipPath>
</defs>
</svg>
