<svg width="80" height="80" viewBox="0 0 80 80" fill="none" xmlns="http://www.w3.org/2000/svg">
<g clip-path="url(#clip0_3574_5310)">
<path d="M80 40C80 62.0914 62.0914 80 40 80C17.9086 80 0 62.0914 0 40C0 17.9086 17.9086 0 40 0C62.0914 0 80 17.9086 80 40Z" fill="black"/>
<path fill-rule="evenodd" clip-rule="evenodd" d="M40 78.3333C61.1709 78.3333 78.3333 61.1709 78.3333 40C78.3333 18.8291 61.1709 1.66667 40 1.66667C18.8291 1.66667 1.66667 18.8291 1.66667 40C1.66667 61.1709 18.8291 78.3333 40 78.3333ZM40 80C62.0914 80 80 62.0914 80 40C80 17.9086 62.0914 0 40 0C17.9086 0 0 17.9086 0 40C0 62.0914 17.9086 80 40 80Z" fill="black" fill-opacity="0.12"/>
<path d="M31.6667 28.7847L25.7143 32.0667V48.4712L39.2785 56.5275L44.7619 53.2454L31.6667 45.4877V28.7847Z" fill="white"/>
<path d="M37.619 45.5254L43.2738 42.2355L48.3333 45.2299V29.0799L54.2857 32.6652V48.5161L48.3333 51.5108L37.619 45.5254Z" fill="white"/>
<path fill-rule="evenodd" clip-rule="evenodd" d="M40 68.3333L15 54.1667V25.8333L40 11.6667L65 25.8333V54.1667L40 68.3333ZM59.0476 50.7412L40 61.5347L20.9524 50.7412V29.2588L40 18.4652L59.0476 29.2588V50.7412Z" fill="white"/>
</g>
<defs>
<clipPath id="clip0_3574_5310">
<rect width="80" height="80" fill="white"/>
</clipPath>
</defs>
</svg>
