<svg width="80" height="80" viewBox="0 0 80 80" fill="none" xmlns="http://www.w3.org/2000/svg">
<g clip-path="url(#clip0_3974_7067)">
<path d="M80 40C80 62.0914 62.0914 80 40 80C17.9086 80 0 62.0914 0 40C0 17.9086 17.9086 0 40 0C62.0914 0 80 17.9086 80 40Z" fill="#00A755"/>
<path fill-rule="evenodd" clip-rule="evenodd" d="M80 40C80 62.0914 62.0914 80 40 80C17.9086 80 0 62.0914 0 40C0 17.9086 17.9086 0 40 0C62.0914 0 80 17.9086 80 40ZM40 78.3333C61.1709 78.3333 78.3333 61.1709 78.3333 40C78.3333 18.8291 61.1709 1.66667 40 1.66667C18.8291 1.66667 1.66667 18.8291 1.66667 40C1.66667 61.1709 18.8291 78.3333 40 78.3333Z" fill="black" fill-opacity="0.12"/>
<path d="M16.6665 33.2547C16.7101 33.2909 16.7452 33.3204 16.7746 33.3451C16.8391 33.3993 16.8759 33.4302 16.9139 33.4578C18.4261 34.5623 19.9386 35.666 21.4513 36.7697C23.5163 38.2765 25.5813 39.7833 27.6456 41.2925C28.2149 41.7082 28.8538 41.9042 29.5527 41.9066C31.2365 41.9137 32.9226 41.9137 34.6064 41.909C35.3582 41.9066 35.4758 41.746 35.2453 41.035C35.0003 40.2816 34.8057 39.5281 34.8225 38.725C34.8754 36.1103 37.0251 33.8452 39.6384 33.6775C42.3597 33.5003 44.7712 35.3828 45.206 37.9928C45.3861 39.0746 45.1651 40.0926 44.8313 41.1082C44.6295 41.7247 44.764 41.9042 45.4294 41.9066C47.1491 41.9137 48.8713 41.9184 50.5911 41.9066C51.2612 41.9019 51.8785 41.7082 52.4285 41.3067C54.5277 39.7719 56.6279 38.2402 58.7285 36.7082C59.851 35.8895 60.9736 35.0708 62.0962 34.2514C62.3487 34.0667 62.6003 33.8801 62.8521 33.6935C63.0123 33.5747 63.1725 33.4558 63.3332 33.3374C63.3258 33.3155 63.3169 33.2951 63.3078 33.2739C63.3051 33.2676 63.3023 33.2612 63.2996 33.2547H47.6439C46.2244 33.2547 45.4125 32.6784 44.973 31.3604C43.4117 26.6766 41.8481 21.9905 40.2845 17.3067C40.2392 17.1731 40.1896 17.0395 40.1348 16.8923C40.1083 16.8208 40.0805 16.7461 40.0515 16.6666C40.0314 16.7082 40.0159 16.737 40.0041 16.759C39.9891 16.787 39.98 16.804 39.9746 16.8225C39.2415 19.0183 38.509 21.2135 37.7765 23.4088C37.0426 25.608 36.3088 27.8072 35.5743 30.007C35.4703 30.3187 35.3641 30.6304 35.2579 30.9421C35.2047 31.0981 35.1516 31.254 35.0987 31.41C34.6712 32.6689 33.8546 33.2547 32.5023 33.2547H16.6665Z" fill="white"/>
<path d="M54.9143 61.8032C54.8758 61.6789 54.8524 61.6059 54.8328 61.5445C54.8264 61.5244 54.8203 61.5056 54.8143 61.4866C54.2471 59.7613 53.6798 58.0361 53.1151 56.3109C52.7226 55.1097 52.3305 53.9085 51.9383 52.7074C51.1551 50.3083 50.3718 47.9092 49.5864 45.5102C49.2623 44.5195 48.9774 44.3238 47.9092 44.3238C47.401 44.323 46.8925 44.3233 46.3838 44.3235C45.3662 44.3241 44.3479 44.3246 43.3296 44.3165C42.5733 44.3117 42.2099 43.9299 42.2123 43.193C42.2148 42.5043 42.4751 41.8979 42.8655 41.3494C43.6979 40.1799 43.7421 38.9403 43.1209 37.7008C42.5095 36.4806 41.4585 35.8234 40.0686 35.7944C38.6321 35.763 37.5271 36.396 36.8739 37.6452C36.2257 38.8872 36.2699 40.1267 37.0753 41.3349C37.3749 41.7843 37.586 42.3207 37.7113 42.8475C37.9421 43.814 37.4805 44.3214 36.4786 44.3214H32.0438C30.9855 44.3238 30.6957 44.5388 30.374 45.5199C29.5086 48.1653 28.6419 50.8102 27.7752 53.4551C26.9082 56.1006 26.0413 58.7462 25.1756 61.3923C25.1546 61.4596 25.1373 61.528 25.1131 61.6241C25.1034 61.6626 25.0925 61.7056 25.0798 61.7548C25.149 61.709 25.2056 61.6732 25.2544 61.6422C25.3215 61.5996 25.3738 61.5665 25.4236 61.5301C28.4701 59.3097 31.5153 57.0882 34.561 54.8663C35.8606 53.9183 37.1603 52.9702 38.4602 52.022C39.4842 51.2778 40.4762 51.273 41.4904 52.0124L52.2605 59.8701C52.8458 60.2979 53.4322 60.7246 54.0423 61.1685C54.327 61.3757 54.6169 61.5866 54.9143 61.8032Z" fill="white"/>
</g>
<defs>
<clipPath id="clip0_3974_7067">
<rect width="80" height="80" fill="white"/>
</clipPath>
</defs>
</svg>
