<svg width="80" height="80" viewBox="0 0 80 80" fill="none" xmlns="http://www.w3.org/2000/svg">
<g clip-path="url(#clip0_3974_7072)">
<path d="M80 40C80 62.0914 62.0914 80 40 80C17.9086 80 0 62.0914 0 40C0 17.9086 17.9086 0 40 0C62.0914 0 80 17.9086 80 40Z" fill="#FABD1B"/>
<path fill-rule="evenodd" clip-rule="evenodd" d="M40 78.3333C61.1709 78.3333 78.3333 61.1709 78.3333 40C78.3333 18.8291 61.1709 1.66667 40 1.66667C18.8291 1.66667 1.66667 18.8291 1.66667 40C1.66667 61.1709 18.8291 78.3333 40 78.3333ZM40 80C62.0914 80 80 62.0914 80 40C80 17.9086 62.0914 0 40 0C17.9086 0 0 17.9086 0 40C0 62.0914 17.9086 80 40 80Z" fill="black" fill-opacity="0.12"/>
<path fill-rule="evenodd" clip-rule="evenodd" d="M25.7539 18.7013C26.2053 18.2107 26.9579 18.2107 27.4093 18.7013L31.1774 22.7971C31.3234 22.9557 31.4234 23.1519 31.4688 23.3631L35.1008 32.4331V23.6245C35.1008 23.3161 35.2152 23.0197 35.4199 22.7971L39.1881 18.7013C39.6395 18.2107 40.3921 18.2107 40.8435 18.7013L44.6116 22.7971C44.7576 22.9557 44.8576 23.1519 44.903 23.3631L48.4695 32.2694V23.6245C48.4695 23.3161 48.5838 23.0197 48.7886 22.7971L52.5567 18.7013C53.0082 18.2107 53.7607 18.2107 54.2122 18.7013L57.9803 22.7971C58.1851 23.0197 58.2994 23.3161 58.2994 23.6245V56.8525C58.4757 57.5882 57.9436 58.3333 57.1853 58.3333H49.6597C49.1993 58.3333 48.7835 58.0463 48.6038 57.6044L44.9307 48.5701V57.0696C44.9307 57.2406 44.8942 57.4027 44.8288 57.5479C44.6711 57.9944 44.2625 58.3333 43.7511 58.3333H36.2255C35.7651 58.3333 35.3493 58.0463 35.1696 57.6044L31.4965 48.5701V57.1379C31.4965 57.7981 30.9831 58.3333 30.3497 58.3333H22.8134C22.1801 58.3333 21.6666 57.7981 21.6666 57.1379V23.6245C21.6666 23.3161 21.781 23.0197 21.9857 22.7971L25.7539 18.7013ZM26.5816 21.0585L23.8292 24.0502V56.0791H29.3339V24.0502L26.5816 21.0585ZM44.9307 42.793L50.3324 56.0791H55.6606L44.9307 29.2844V42.793ZM56.1368 51.4163V24.0502L53.3844 21.0585L50.6321 24.0502V37.6698L56.1368 51.4163ZM31.4965 42.793V29.2844L42.2264 56.0791H36.8982L31.4965 42.793ZM42.7681 51.58L37.2634 37.8335V24.0502L40.0158 21.0585L42.7681 24.0502V51.58Z" fill="black"/>
</g>
<defs>
<clipPath id="clip0_3974_7072">
<rect width="80" height="80" fill="white"/>
</clipPath>
</defs>
</svg>
