<svg width="80" height="80" viewBox="0 0 80 80" fill="none" xmlns="http://www.w3.org/2000/svg">
<g clip-path="url(#clip0_3974_7104)">
<path d="M80 40C80 62.0914 62.0914 80 40 80C17.9086 80 0 62.0914 0 40C0 17.9086 17.9086 0 40 0C62.0914 0 80 17.9086 80 40Z" fill="#35374E"/>
<path fill-rule="evenodd" clip-rule="evenodd" d="M40 78.3333C61.1709 78.3333 78.3333 61.1709 78.3333 40C78.3333 18.8291 61.1709 1.66667 40 1.66667C18.8291 1.66667 1.66667 18.8291 1.66667 40C1.66667 61.1709 18.8291 78.3333 40 78.3333ZM40 80C62.0914 80 80 62.0914 80 40C80 17.9086 62.0914 0 40 0C17.9086 0 0 17.9086 0 40C0 62.0914 17.9086 80 40 80Z" fill="black" fill-opacity="0.12"/>
<path d="M59.6619 25H23.6714C22.5624 25 21.6666 25.8958 21.6666 27.0048V52.9926C21.6666 54.1017 22.5624 54.9974 23.6714 54.9974L27.6597 55.008L31.6693 65L35.6362 54.9974H59.6619C60.7709 54.9974 61.6666 54.1017 61.6666 52.9926V27.0048C61.656 25.8958 60.7603 25 59.6619 25ZM49.6699 38.991V48.9937H43.6554V44.9947H39.6565V48.9937H33.6741V38.991H31.6373L41.6613 30.9931L43.6981 32.614V30.9931H47.6437V35.7599L51.6961 38.991H49.6699Z" fill="white"/>
</g>
<defs>
<clipPath id="clip0_3974_7104">
<rect width="80" height="80" fill="white"/>
</clipPath>
</defs>
</svg>
