<svg width="80" height="80" viewBox="0 0 80 80" fill="none" xmlns="http://www.w3.org/2000/svg">
<g clip-path="url(#clip0_3956_101)">
<path d="M80 40C80 62.0914 62.0914 80 40 80C17.9086 80 0 62.0914 0 40C0 17.9086 17.9086 0 40 0C62.0914 0 80 17.9086 80 40Z" fill="#0071CC"/>
<path fill-rule="evenodd" clip-rule="evenodd" d="M40 78.3333C61.1709 78.3333 78.3333 61.1709 78.3333 40C78.3333 18.8291 61.1709 1.66667 40 1.66667C18.8291 1.66667 1.66667 18.8291 1.66667 40C1.66667 61.1709 18.8291 78.3333 40 78.3333ZM40 80C62.0914 80 80 62.0914 80 40C80 17.9086 62.0914 0 40 0C17.9086 0 0 17.9086 0 40C0 62.0914 17.9086 80 40 80Z" fill="black" fill-opacity="0.12"/>
<path d="M15 45.5556C15 28.6802 28.6802 15 45.5556 15H58.3333V27.2222H46.6667C35.9278 27.2222 27.2222 35.9278 27.2222 46.6667V58.3333H15V45.5556Z" fill="white"/>
<path d="M46.6667 33.3333C39.3028 33.3333 33.3333 39.3029 33.3333 46.6667V58.3333H58.3333V33.3333H46.6667Z" fill="white"/>
</g>
<defs>
<clipPath id="clip0_3956_101">
<rect width="80" height="80" fill="white"/>
</clipPath>
</defs>
</svg>
