<svg width="80" height="80" viewBox="0 0 80 80" fill="none" xmlns="http://www.w3.org/2000/svg">
<g clip-path="url(#clip0_3974_7103)">
<path d="M80 40C80 62.0914 62.0914 80 40 80C17.9086 80 0 62.0914 0 40C0 17.9086 17.9086 0 40 0C62.0914 0 80 17.9086 80 40Z" fill="#FEDD61"/>
<path d="M20.2564 74.7958V66.6221C20.2564 62.5579 23.1741 59.5965 27.7622 57.3084C20.4425 56.3227 18.0543 53.8371 16.6666 46.1319C21.7055 45.0059 23.2123 43.3603 24.0093 38.5116C24.1141 37.8742 24.1913 37.0269 24.2816 36.0359C24.8784 29.4881 26.047 16.6667 39.5104 16.6667C54.9907 16.6667 55.6704 29.7981 56.01 36.3588C56.0534 37.1975 56.0913 37.9288 56.1538 38.5116C56.7053 43.6531 58.1778 45.2554 63.3333 46.1319C62.4396 53.0418 59.9887 55.4725 52.2377 57.3084C57.3863 59.5896 59.9067 62.8966 59.9067 66.9608V74.7025C54.0444 78.0726 47.2472 80 40 80C32.8198 80 26.0815 78.1082 20.2564 74.7958Z" fill="#F9AC3B"/>
<path fill-rule="evenodd" clip-rule="evenodd" d="M40 78.3333C61.1709 78.3333 78.3333 61.1709 78.3333 40C78.3333 18.8291 61.1709 1.66667 40 1.66667C18.8291 1.66667 1.66667 18.8291 1.66667 40C1.66667 61.1709 18.8291 78.3333 40 78.3333ZM40 80C62.0914 80 80 62.0914 80 40C80 17.9086 62.0914 0 40 0C17.9086 0 0 17.9086 0 40C0 62.0914 17.9086 80 40 80Z" fill="black" fill-opacity="0.12"/>
</g>
<defs>
<clipPath id="clip0_3974_7103">
<rect width="80" height="80" fill="white"/>
</clipPath>
</defs>
</svg>
