<svg width="80" height="80" viewBox="0 0 80 80" fill="none" xmlns="http://www.w3.org/2000/svg">
<g clip-path="url(#clip0_3974_7057)">
<path d="M80 40C80 62.0914 62.0914 80 40 80C17.9086 80 0 62.0914 0 40C0 17.9086 17.9086 0 40 0C62.0914 0 80 17.9086 80 40Z" fill="white"/>
<path fill-rule="evenodd" clip-rule="evenodd" d="M40 78.3333C61.1709 78.3333 78.3333 61.1709 78.3333 40C78.3333 18.8291 61.1709 1.66667 40 1.66667C18.8291 1.66667 1.66667 18.8291 1.66667 40C1.66667 61.1709 18.8291 78.3333 40 78.3333ZM40 80C62.0914 80 80 62.0914 80 40C80 17.9086 62.0914 0 40 0C17.9086 0 0 17.9086 0 40C0 62.0914 17.9086 80 40 80Z" fill="black" fill-opacity="0.12"/>
<path fill-rule="evenodd" clip-rule="evenodd" d="M36.6008 54.668L40.0661 65H40C26.193 65 15 53.808 15 40C15 26.192 26.193 15 39.998 15H40.0441L36.5788 25.338C33.2677 26.1135 30.3164 27.9841 28.2044 30.6459C26.0924 33.3076 24.9438 36.6041 24.9451 40C24.9435 43.3996 26.0944 46.6997 28.2104 49.363C30.3264 52.0263 33.285 53.8961 36.6008 54.668ZM40.0881 15C53.8551 15.048 65 26.222 65 40C65 53.786 53.843 64.964 40.0661 65L43.5434 54.632C46.8265 53.8337 49.7459 51.9573 51.833 49.3039C53.9202 46.6505 55.0541 43.3739 55.0529 40C55.0541 36.6303 53.923 33.3577 51.8406 30.7059C49.7583 28.0542 46.8451 26.1767 43.5674 25.374L40.0881 15Z" fill="#05A6F0"/>
</g>
<defs>
<clipPath id="clip0_3974_7057">
<rect width="80" height="80" fill="white"/>
</clipPath>
</defs>
</svg>
