<svg width="80" height="80" viewBox="0 0 80 80" fill="none" xmlns="http://www.w3.org/2000/svg">
<g clip-path="url(#clip0_3974_7062)">
<path d="M80 40C80 62.0914 62.0914 80 40 80C17.9086 80 0 62.0914 0 40C0 17.9086 17.9086 0 40 0C62.0914 0 80 17.9086 80 40Z" fill="white"/>
<path fill-rule="evenodd" clip-rule="evenodd" d="M40 78.3333C61.1709 78.3333 78.3333 61.1709 78.3333 40C78.3333 18.8291 61.1709 1.66667 40 1.66667C18.8291 1.66667 1.66667 18.8291 1.66667 40C1.66667 61.1709 18.8291 78.3333 40 78.3333ZM40 80C62.0914 80 80 62.0914 80 40C80 17.9086 62.0914 0 40 0C17.9086 0 0 17.9086 0 40C0 62.0914 17.9086 80 40 80Z" fill="black" fill-opacity="0.12"/>
<path d="M56.5063 19.0101L14.4293 36.6586C10.7702 38.1934 10.7386 43.1538 14.378 44.7311L56.4139 62.9501C61.9108 65.3325 68.1419 61.483 68.1419 55.7046V26.2951C68.1419 20.5585 61.9932 16.7088 56.5063 19.0101Z" fill="#46C2C1"/>
<path d="M23.3023 62.9898L65.3793 45.3414C69.0385 43.8066 69.07 38.8462 65.4307 37.2689L23.3947 19.0499C17.8978 16.6675 11.6667 20.517 11.6667 26.2954L11.6667 55.7049C11.6667 61.4415 17.8155 65.2912 23.3023 62.9898Z" fill="#57BF94"/>
<path d="M11.8581 40.95C11.8686 42.5604 12.7706 44.1663 14.5693 44.9459L40.3675 56.1272L65.5707 45.5562C67.4 44.7889 68.3227 43.1655 68.3333 41.5366V41.4796C68.3228 39.8693 67.4208 38.2633 65.6221 37.4837L39.8239 26.3024L14.6207 36.8734C12.7914 37.6407 11.8688 39.264 11.8581 40.8929L11.8581 40.95Z" fill="#17A676"/>
<path d="M48.7656 41.5233C48.7656 46.4036 44.6346 50.3599 39.5387 50.3599C34.4429 50.3599 30.3118 46.4036 30.3118 41.5233C30.3118 36.643 34.4429 32.6867 39.5387 32.6867C44.6346 32.6867 48.7656 36.643 48.7656 41.5233Z" fill="white"/>
<path d="M44.1521 41.5233C44.1521 43.9635 42.0866 45.9416 39.5387 45.9416C36.9908 45.9416 34.9253 43.9635 34.9253 41.5233C34.9253 39.0831 36.9908 37.105 39.5387 37.105C42.0866 37.105 44.1521 39.0831 44.1521 41.5233Z" fill="#FAB54A"/>
</g>
<defs>
<clipPath id="clip0_3974_7062">
<rect width="80" height="80" fill="white"/>
</clipPath>
</defs>
</svg>
