<svg width="80" height="80" viewBox="0 0 80 80" fill="none" xmlns="http://www.w3.org/2000/svg">
<g clip-path="url(#clip0_3974_7047)">
<path d="M80 40C80 62.0914 62.0914 80 40 80C17.9086 80 0 62.0914 0 40C0 17.9086 17.9086 0 40 0C62.0914 0 80 17.9086 80 40Z" fill="#EC5E3F"/>
<path fill-rule="evenodd" clip-rule="evenodd" d="M40 78.3333C61.1709 78.3333 78.3333 61.1709 78.3333 40C78.3333 18.8291 61.1709 1.66667 40 1.66667C18.8291 1.66667 1.66667 18.8291 1.66667 40C1.66667 61.1709 18.8291 78.3333 40 78.3333ZM40 80C62.0914 80 80 62.0914 80 40C80 17.9086 62.0914 0 40 0C17.9086 0 0 17.9086 0 40C0 62.0914 17.9086 80 40 80Z" fill="black" fill-opacity="0.12"/>
<path d="M26.4584 18.3333H18.3334V26.4583H23.75V23.75H26.4584V18.3333Z" fill="white"/>
<path d="M61.6667 26.4583V18.3333H53.5417V23.75H56.25V26.4583H61.6667Z" fill="white"/>
<path d="M61.6667 61.6667H53.5417V56.25H56.25V53.5417H61.6667V61.6667Z" fill="white"/>
<path d="M18.3334 53.5417V61.6667H26.4584V56.25H23.75V53.5417H18.3334Z" fill="white"/>
<path d="M23.75 33.2292H18.3334V48.125H23.75V33.2292Z" fill="white"/>
<path d="M56.25 33.2292H61.6667V48.125H56.25V33.2292Z" fill="white"/>
<path d="M46.7709 23.75V18.3333H34.5834V23.75H46.7709Z" fill="white"/>
<path d="M46.7709 56.25V61.6667H34.5834V56.25H46.7709Z" fill="white"/>
<path d="M40.6771 48.125C44.7905 48.125 48.125 44.7904 48.125 40.6771C48.125 36.5637 44.7905 33.2292 40.6771 33.2292C36.5637 33.2292 33.2292 36.5637 33.2292 40.6771C33.2292 44.7904 36.5637 48.125 40.6771 48.125Z" fill="white"/>
</g>
<defs>
<clipPath id="clip0_3974_7047">
<rect width="80" height="80" fill="white"/>
</clipPath>
</defs>
</svg>
