<svg width="80" height="80" viewBox="0 0 80 80" fill="none" xmlns="http://www.w3.org/2000/svg">
<g clip-path="url(#clip0_3574_5318)">
<path d="M80 40C80 62.0914 62.0914 80 40 80C17.9086 80 0 62.0914 0 40C0 17.9086 17.9086 0 40 0C62.0914 0 80 17.9086 80 40Z" fill="#0C1215"/>
<path d="M18.7293 25.1347C17.3972 25.8183 16.5919 27.232 16.6721 28.7411C17.4963 44.2451 25.6741 57.9109 37.9321 66.042C39.1853 66.8734 40.8033 66.875 42.058 66.0461C54.4381 57.8679 62.5209 44.1212 63.3188 28.7369C63.3969 27.2299 62.5914 25.8191 61.2616 25.136C47.7814 18.2111 31.9196 18.3658 18.7293 25.1347ZM47.2706 43.3956C44.308 40.5534 41.891 36.3212 40.7734 31.8209C44.204 31.8999 47.6864 32.6097 50.9092 33.6624C50.1814 37.031 48.8819 40.3692 47.2706 43.3956Z" fill="#27AE60"/>
<path d="M47.2708 43.4041C45.1917 47.2687 42.0793 50.9052 40.0002 52.6667C34.3606 47.5138 30.5859 40.7606 29.0786 33.6624C33.0029 32.3741 37.0829 31.7158 40.7734 31.8209C41.9169 36.3428 44.2821 40.5386 47.2708 43.4041Z" fill="url(#paint0_linear_3574_5318)"/>
<path d="M53.7073 22.0567C42.1316 18.4975 29.5442 19.5978 18.7411 25.135C17.4081 25.8182 16.6014 27.2324 16.6812 28.7422C16.9227 33.2377 17.7818 37.5913 19.1854 41.7065C22.6057 51.7233 29.248 60.2748 37.9412 66.0419C38.5723 66.4604 39.2788 66.6687 40.001 66.6666C40.0261 63.7903 40.0002 52.6667 40.0002 52.6667C34.3605 47.5138 30.5879 40.7606 29.0885 33.6622C33.0033 32.3741 37.0842 31.7158 40.7734 31.8209C44.204 31.8999 47.6864 32.6097 50.9092 33.6624C50.9046 33.6881 50.909 33.7053 50.9045 33.7311C54.7053 34.987 58.3148 36.8976 61.5504 39.4302C62.5303 35.9951 63.1388 32.4127 63.3279 28.7369C63.4076 27.2298 62.6009 25.819 61.2702 25.1359C58.8183 23.8761 56.2867 22.8506 53.7073 22.0567Z" fill="url(#paint1_linear_3574_5318)"/>
<path fill-rule="evenodd" clip-rule="evenodd" d="M40 78.3333C61.1709 78.3333 78.3333 61.1709 78.3333 40C78.3333 18.8291 61.1709 1.66667 40 1.66667C18.8291 1.66667 1.66667 18.8291 1.66667 40C1.66667 61.1709 18.8291 78.3333 40 78.3333ZM40 80C62.0914 80 80 62.0914 80 40C80 17.9086 62.0914 0 40 0C17.9086 0 0 17.9086 0 40C0 62.0914 17.9086 80 40 80Z" fill="black" fill-opacity="0.12"/>
</g>
<defs>
<linearGradient id="paint0_linear_3574_5318" x1="40" y1="20.0001" x2="40" y2="66.5239" gradientUnits="userSpaceOnUse">
<stop stop-color="#325240"/>
<stop offset="1" stop-color="#116F39"/>
</linearGradient>
<linearGradient id="paint1_linear_3574_5318" x1="39.9946" y1="52.4023" x2="50.8901" y2="34.7717" gradientUnits="userSpaceOnUse">
<stop stop-color="#219653"/>
<stop offset="1" stop-color="#27AE60"/>
</linearGradient>
<clipPath id="clip0_3574_5318">
<rect width="80" height="80" fill="white"/>
</clipPath>
</defs>
</svg>
