<svg width="80" height="80" viewBox="0 0 80 80" fill="none" xmlns="http://www.w3.org/2000/svg">
<g clip-path="url(#clip0_3956_111)">
<path d="M80 40C80 62.0914 62.0914 80 40 80C17.9086 80 0 62.0914 0 40C0 17.9086 17.9086 0 40 0C62.0914 0 80 17.9086 80 40Z" fill="black"/>
<path fill-rule="evenodd" clip-rule="evenodd" d="M40 78.3333C61.1709 78.3333 78.3333 61.1709 78.3333 40C78.3333 18.8291 61.1709 1.66667 40 1.66667C18.8291 1.66667 1.66667 18.8291 1.66667 40C1.66667 61.1709 18.8291 78.3333 40 78.3333ZM40 80C62.0914 80 80 62.0914 80 40C80 17.9086 62.0914 0 40 0C17.9086 0 0 17.9086 0 40C0 62.0914 17.9086 80 40 80Z" fill="black" fill-opacity="0.12"/>
<rect x="21" y="56" width="41" height="5" fill="#F7AE04"/>
<path d="M43.1072 14C43.1082 14.0141 43.4539 18.6901 44.657 21.3213C48.5334 29.7986 53.9604 39.0469 58.9997 50.9922C51.247 51.3773 47.3708 37.8903 40.781 29.4131C39.5357 27.8112 38.5397 26.5615 36.5163 26.3311C31.5563 25.7667 28.4501 35.615 22.1745 32.4961C20.6241 31.7254 29.9272 24.4041 29.9275 20.5508V14H43.1072ZM35.3572 30.9258C35.9834 29.9021 37.3636 29.6564 38.3044 30.4014L39.5163 31.3613C40.3485 32.0203 40.5207 33.2146 39.9089 34.082L28.7683 49.877C28.2912 50.5533 27.433 50.8918 26.6833 50.541C26.4766 50.4442 26.2774 50.3344 26.116 50.2139C25.7745 49.9588 25.5145 49.4569 25.3318 48.9814C25.0611 48.2774 25.2185 47.4999 25.612 46.8564L35.3572 30.9258Z" fill="white"/>
</g>
<defs>
<clipPath id="clip0_3956_111">
<rect width="80" height="80" fill="white"/>
</clipPath>
</defs>
</svg>
